<?xml version="1.0" encoding="UTF-8"?>
<svg version="1.1" xmlns="http://www.w3.org/2000/svg" width="200" height="200">
<path d="M0 0 C66 0 132 0 200 0 C200 66 200 132 200 200 C134 200 68 200 0 200 C0 134 0 68 0 0 Z " fill="#FEFEFE" transform="translate(0,0)"/>
<path d="M0 0 C4.05745008 1.77609135 7.60568032 4.08619712 9.9765625 7.8828125 C14.2573444 20.36842639 9.80245885 36.74974034 7.8203125 49.34375 C8.99013672 49.32280273 10.15996094 49.30185547 11.36523438 49.28027344 C15.7335979 49.20750144 20.10190855 49.16181578 24.47070312 49.12402344 C26.35621166 49.10399233 28.24165873 49.07675927 30.12695312 49.04199219 C32.84781112 48.99309728 35.56784306 48.97069618 38.2890625 48.953125 C39.12272339 48.93247986 39.95638428 48.91183472 40.81530762 48.89056396 C46.5688189 48.88839174 51.05898135 50.00139469 55.8203125 53.34375 C59.18957054 57.57692036 60.95335328 61.19108299 61.1328125 66.59375 C61.18888672 67.68429688 61.18888672 67.68429688 61.24609375 68.796875 C60.15471557 75.32511879 55.49780664 80.10836388 50.96948242 84.59863281 C50.39492813 85.18005035 49.82037384 85.7614679 49.22840881 86.36050415 C47.34343121 88.26365401 45.44771268 90.1556451 43.55078125 92.046875 C42.22768748 93.37453434 40.90496487 94.70256365 39.58259583 96.03094482 C36.81617092 98.80628145 34.04417093 101.57589871 31.26831055 104.34179688 C27.7190661 107.87953994 24.18594699 111.43291094 20.65706921 114.99095535 C17.93169861 117.73470397 15.19704272 120.46904836 12.45961952 123.20076752 C11.15325682 124.50697728 9.84997725 125.81627839 8.54991722 127.12876129 C6.72918503 128.96443544 4.89607327 130.78681398 3.05932617 132.60644531 C2.26493637 133.41533707 2.26493637 133.41533707 1.45449829 134.24057007 C-3.0129973 138.62169901 -8.09652129 141.72067051 -14.5546875 141.90625 C-20.16919172 141.70435858 -24.07832601 139.00355704 -28.1796875 135.34375 C-33.10043168 129.23009814 -31.61680591 120.66775302 -30.87207031 113.30078125 C-30.06117291 105.97077957 -29.14370326 98.65505745 -28.1796875 91.34375 C-29.97986328 91.38302612 -29.97986328 91.38302612 -31.81640625 91.4230957 C-36.29652035 91.51403843 -40.77655393 91.57115864 -45.25732422 91.6184082 C-47.19138337 91.64345241 -49.12534881 91.67749811 -51.05908203 91.72094727 C-53.84951981 91.7820465 -56.6386996 91.81006051 -59.4296875 91.83203125 C-60.28522217 91.85783768 -61.14075684 91.8836441 -62.0222168 91.91023254 C-68.1726981 91.91306433 -72.50265517 90.4300598 -77.1796875 86.34375 C-80.58550239 81.74250376 -81.62518563 77.38518638 -81.7109375 71.71484375 C-80.26740471 65.27201727 -75.86254607 60.58699875 -71.31298828 56.08886719 C-70.7368277 55.50744965 -70.16066711 54.9260321 -69.56704712 54.32699585 C-67.67712851 52.42396765 -65.77656079 50.53201463 -63.875 48.640625 C-62.54943743 47.31303938 -61.22432028 45.98500888 -59.89962769 44.65655518 C-57.12885175 41.88136836 -54.35275312 39.1116497 -51.57275391 36.34570312 C-48.01620811 32.80626492 -44.47332369 29.25350538 -40.93431282 25.69654465 C-38.20306031 22.95443533 -35.46468261 20.21953143 -32.72411728 17.48673248 C-31.41502765 16.17963873 -30.10814805 14.87032759 -28.80356216 13.55873871 C-26.977943 11.72547223 -25.14293162 9.902144 -23.30517578 8.08105469 C-22.7719873 7.54179352 -22.23879883 7.00253235 -21.68945312 6.44692993 C-15.28131542 0.14564753 -8.75105025 -2.63472481 0 0 Z " fill="#4D0489" transform="translate(110.1796875,29.65625)"/>
<path d="M0 0 C2.86032643 0.0928741 5.71947372 0.11796383 8.58109093 0.14056206 C12.02550431 0.17094474 15.46884615 0.23952296 18.91259766 0.31164551 C20.81904556 0.34655594 20.81904556 0.34655594 22.76400757 0.38217163 C29.81464426 0.64689198 34.80121863 1.3186789 40.76416016 5.19445801 C44.1334182 9.42762837 45.89720094 13.04179099 46.07666016 18.44445801 C46.13273437 19.53500488 46.13273437 19.53500488 46.18994141 20.64758301 C45.09856323 27.1758268 40.4416543 31.95907189 35.91333008 36.44934082 C35.33877579 37.03075836 34.7642215 37.6121759 34.17225647 38.21121216 C32.28727886 40.11436201 30.39156033 42.00635311 28.49462891 43.89758301 C27.17153514 45.22524235 25.84881252 46.55327165 24.52644348 47.88165283 C21.76001858 50.65698945 18.98801859 53.42660672 16.2121582 56.19250488 C12.66291376 59.73024795 9.12979465 63.28361894 5.60091686 66.84166336 C2.87554626 69.58541198 0.14089037 72.31975636 -2.59653282 75.05147552 C-3.90289553 76.35768529 -5.20617509 77.66698639 -6.50623512 78.9794693 C-8.32696731 80.81514345 -10.16007907 82.63752199 -11.99682617 84.45715332 C-12.52641937 84.99641449 -13.05601257 85.53567566 -13.60165405 86.09127808 C-18.06914965 90.47240701 -23.15267363 93.57137852 -29.61083984 93.75695801 C-35.22534406 93.55506659 -39.13447836 90.85426505 -43.23583984 87.19445801 C-48.15658402 81.08080615 -46.67295825 72.51846102 -45.92822266 65.15148926 C-45.11732526 57.82148758 -44.1998556 50.50576546 -43.23583984 43.19445801 C-42.60830811 43.26366455 -41.98077637 43.33287109 -41.33422852 43.4041748 C-28.26325155 44.59606248 -28.26325155 44.59606248 -16.234375 40.28234863 C-10.11510782 35.11256816 -5.47910824 29.37987619 -0.23583984 23.19445801 C-24.49083984 22.69945801 -24.49083984 22.69945801 -49.23583984 22.19445801 C-47.25583984 19.88445801 -45.27583984 17.57445801 -43.23583984 15.19445801 C-41.97586182 13.35971924 -41.97586182 13.35971924 -40.69042969 11.48791504 C-30.38904563 -2.37529098 -15.6361677 -0.5977375 0 0 Z " fill="#9044CE" transform="translate(125.23583984375,77.8055419921875)"/>
<path d="M0 0 C0.33 0.99 0.66 1.98 1 3 C3.70948975 3.90316325 5.40135334 4.146575 8.19604492 4.20532227 C9.45701241 4.2352401 9.45701241 4.2352401 10.74345398 4.26576233 C11.64666885 4.28247482 12.54988373 4.29918732 13.48046875 4.31640625 C14.40845779 4.33718735 15.33644684 4.35796844 16.29255676 4.37937927 C19.2574624 4.44477323 22.22245672 4.50371262 25.1875 4.5625 C27.1972748 4.60569487 29.20704063 4.64930947 31.21679688 4.69335938 C36.14444032 4.80044427 41.07217299 4.90174045 46 5 C46 5.66 46 6.32 46 7 C40.30753414 7.12419787 34.61586803 7.2146204 28.92236328 7.2746582 C26.98830413 7.29970241 25.05433869 7.33374811 23.12060547 7.37719727 C20.33016769 7.4382965 17.5409879 7.46631051 14.75 7.48828125 C13.89446533 7.51408768 13.03893066 7.5398941 12.1574707 7.56648254 C5.84804491 7.56938751 1.99003617 5.81757462 -3 2 C-2.01 1.34 -1.02 0.68 0 0 Z " fill="#460A7A" transform="translate(36,114)"/>
<path d="M0 0 C0.495 1.485 0.495 1.485 1 3 C0.34 3 -0.32 3 -1 3 C-1.33 3.99 -1.66 4.98 -2 6 C-3.48828125 7.4296875 -3.48828125 7.4296875 -5.3125 8.875 C-8.31055119 11.33241901 -10.58660876 13.96091473 -13 17 C-13.66 17 -14.32 17 -15 17 C-15 17.66 -15 18.32 -15 19 C-15.66 19 -16.32 19 -17 19 C-17.33 19.99 -17.66 20.98 -18 22 C-19.671875 23.61328125 -19.671875 23.61328125 -21.75 25.3125 C-24.39725339 27.5422654 -26.72656416 29.72300921 -28.875 32.4375 C-29.926875 33.7059375 -29.926875 33.7059375 -31 35 C-31.66 35 -32.32 35 -33 35 C-33 35.66 -33 36.32 -33 37 C-34.53125 38.5078125 -34.53125 38.5078125 -36.5 40.125 C-37.1496875 40.66382813 -37.799375 41.20265625 -38.46875 41.7578125 C-38.9740625 42.16773438 -39.479375 42.57765625 -40 43 C-40.66 42.67 -41.32 42.34 -42 42 C-28.14 28.14 -14.28 14.28 0 0 Z " fill="#F8E5FE" transform="translate(162,112)"/>
<path d="M0 0 C4.88765533 1.35768204 6.52591098 3.67034421 9 8 C10.54901075 12.64703225 11.02853799 17.53420369 9.10546875 22.14453125 C8.14608065 23.80905265 7.08124099 25.4119273 6 27 C5.67 26.34 5.34 25.68 5 25 C5.28875 24.443125 5.5775 23.88625 5.875 23.3125 C8.92629899 17.04038542 7.75898829 11.41085815 6 5 C4.35 5.33 2.7 5.66 1 6 C1 5.34 1 4.68 1 4 C0.34 3.67 -0.32 3.34 -1 3 C-0.67 2.01 -0.34 1.02 0 0 Z " fill="#915EBF" transform="translate(161,81)"/>
<path d="M0 0 C7.92 0 15.84 0 24 0 C24 0.33 24 0.66 24 1 C17.07 1 10.14 1 3 1 C3 4.3 3 7.6 3 11 C2.01 11.99 1.02 12.98 0 14 C0 9.38 0 4.76 0 0 Z " fill="#823DC2" transform="translate(82,121)"/>
<path d="M0 0 C0.88751953 0.30744141 0.88751953 0.30744141 1.79296875 0.62109375 C2.58316406 0.89050781 3.37335938 1.15992188 4.1875 1.4375 C5.35345703 1.83775391 5.35345703 1.83775391 6.54296875 2.24609375 C11.60212864 3.79842739 14.66827039 4.11196675 19.8125 2.5625 C21.27623047 2.13130859 21.27623047 2.13130859 22.76953125 1.69140625 C23.87361328 1.34916016 23.87361328 1.34916016 25 1 C21.31816931 4.83962344 17.9905255 6.10891322 12.6875 6.4375 C7.55299045 6.35135051 3.89718356 4.23880377 0 1 C0 0.67 0 0.34 0 0 Z " fill="#8F5BBE" transform="translate(83,165)"/>
<path d="M0 0 C0.33 0 0.66 0 1 0 C1.19491452 1.45736087 1.38069358 2.91594593 1.5625 4.375 C1.66691406 5.18710938 1.77132812 5.99921875 1.87890625 6.8359375 C2 9 2 9 1 11 C0.78217533 12.44512437 0.61026332 13.89736678 0.46484375 15.3515625 C0.37783203 16.20234375 0.29082031 17.053125 0.20117188 17.9296875 C0.11416016 18.81914062 0.02714844 19.70859375 -0.0625 20.625 C-0.15337891 21.5221875 -0.24425781 22.419375 -0.33789062 23.34375 C-0.56209292 25.56217272 -0.78264566 27.7808976 -1 30 C-1.33 30 -1.66 30 -2 30 C-2.35762486 19.86729571 -1.24844065 10.03211235 0 0 Z " fill="#8C52B6" transform="translate(81,128)"/>
<path d="M0 0 C0.33 0.99 0.66 1.98 1 3 C-0.9375 5.6875 -0.9375 5.6875 -3 8 C-3.66 7.67 -4.32 7.34 -5 7 C-5 7.99 -5 8.98 -5 10 C-5.99 10.66 -6.98 11.32 -8 12 C-8.99 11.67 -9.98 11.34 -11 11 C-7.37 7.37 -3.74 3.74 0 0 Z " fill="#4D127D" transform="translate(86,39)"/>
<path d="M0 0 C0 2 0 4 0 6 C-0.66 6 -1.32 6 -2 6 C-2.33 6.99 -2.66 7.98 -3 9 C-4.98 9.33 -6.96 9.66 -9 10 C-8.06409496 8.8944811 -7.12620142 7.79064547 -6.1875 6.6875 C-5.66542969 6.07261719 -5.14335938 5.45773438 -4.60546875 4.82421875 C-3.12827531 3.14575321 -1.59960869 1.56117966 0 0 Z " fill="#4D127F" transform="translate(54,71)"/>
<path d="M0 0 C1.32 0.66 2.64 1.32 4 2 C1.36 4.64 -1.28 7.28 -4 10 C-4 7 -4 7 -2 5 C-1.29289322 3.35008418 -0.62056011 1.68437744 0 0 Z " fill="#8D51C1" transform="translate(149,120)"/>
<path d="M0 0 C1.875 0.25 1.875 0.25 4 1 C5.25 3.0625 5.25 3.0625 6 5 C3.50907189 6.24546405 2.58919267 5.7767578 0 5 C0 3.35 0 1.7 0 0 Z " fill="#501587" transform="translate(113,33)"/>
<path d="M0 0 C0.33 0.99 0.66 1.98 1 3 C4.51190809 4.22969878 4.51190809 4.22969878 8 5 C7.67 5.66 7.34 6.32 7 7 C2.56909529 5.79157144 0.01887244 4.48331435 -3 1 C-2.01 0.67 -1.02 0.34 0 0 Z " fill="#562384" transform="translate(36,114)"/>
<path d="M0 0 C2.475 0.99 2.475 0.99 5 2 C4.67 2.99 4.34 3.98 4 5 C3.01 5.33 2.02 5.66 1 6 C1 5.34 1 4.68 1 4 C0.34 3.67 -0.32 3.34 -1 3 C-0.67 2.01 -0.34 1.02 0 0 Z " fill="#8C4DC2" transform="translate(161,81)"/>
<path d="M0 0 C0 2 0 2 -1.125 3.5625 C-3.63946978 5.49026016 -5.89545967 5.65505107 -9 6 C-3.15384615 0 -3.15384615 0 0 0 Z " fill="#4D127C" transform="translate(99,30)"/>
<path d="M0 0 C0.33 0.99 0.66 1.98 1 3 C0.01 3.66 -0.98 4.32 -2 5 C-3.19232613 7.05003955 -3.19232613 7.05003955 -4 9 C-4.66 9 -5.32 9 -6 9 C-4.68775452 5.06326356 -3.08089673 2.77280706 0 0 Z " fill="#511A7F" transform="translate(36,89)"/>
<path d="M0 0 C0.33 0 0.66 0 1 0 C1 1.65 1 3.3 1 5 C-0.98 5.33 -2.96 5.66 -5 6 C-3.35830472 3.97945196 -1.69088222 1.97956942 0 0 Z " fill="#4D1082" transform="translate(44,81)"/>
<path d="M0 0 C0.33 0 0.66 0 1 0 C1.19491452 1.45736087 1.38069358 2.91594593 1.5625 4.375 C1.66691406 5.18710938 1.77132812 5.99921875 1.87890625 6.8359375 C2 9 2 9 1 11 C0.34 11 -0.32 11 -1 11 C-0.67 7.37 -0.34 3.74 0 0 Z " fill="#9860C4" transform="translate(81,128)"/>
</svg>
